<mxfile host="Electron" agent="Mozilla/5.0 (Windows NT 10.0; Win64; x64) AppleWebKit/537.36 (KHTML, like Gecko) draw.io/25.0.2 Chrome/128.0.6613.186 Electron/32.2.5 Safari/537.36" version="25.0.2">
  <diagram id="C5RBs43oDa-KdzZeNtuy" name="Page-1">
    <mxGraphModel dx="3160" dy="1380" grid="1" gridSize="10" guides="1" tooltips="1" connect="1" arrows="1" fold="1" page="1" pageScale="1" pageWidth="827" pageHeight="1169" math="0" shadow="0">
      <root>
        <mxCell id="WIyWlLk6GJQsqaUBKTNV-0" />
        <mxCell id="WIyWlLk6GJQsqaUBKTNV-1" parent="WIyWlLk6GJQsqaUBKTNV-0" />
        <mxCell id="G-lFMrFsebPdyt-fE-ib-6" value="" style="edgeStyle=orthogonalEdgeStyle;rounded=0;orthogonalLoop=1;jettySize=auto;html=1;" parent="WIyWlLk6GJQsqaUBKTNV-1" source="G-lFMrFsebPdyt-fE-ib-0" target="G-lFMrFsebPdyt-fE-ib-5" edge="1">
          <mxGeometry relative="1" as="geometry" />
        </mxCell>
        <mxCell id="G-lFMrFsebPdyt-fE-ib-0" value="Read data:&lt;div&gt;Amount of vehicles&lt;/div&gt;&lt;div&gt;Amount of staff&lt;/div&gt;&lt;div&gt;Amount of delivery points&lt;/div&gt;&lt;div&gt;Amount of packages&lt;/div&gt;" style="rounded=1;whiteSpace=wrap;html=1;" parent="WIyWlLk6GJQsqaUBKTNV-1" vertex="1">
          <mxGeometry x="85" y="17" width="160" height="90" as="geometry" />
        </mxCell>
        <mxCell id="G-lFMrFsebPdyt-fE-ib-9" value="" style="edgeStyle=orthogonalEdgeStyle;rounded=0;orthogonalLoop=1;jettySize=auto;html=1;" parent="WIyWlLk6GJQsqaUBKTNV-1" source="G-lFMrFsebPdyt-fE-ib-5" target="G-lFMrFsebPdyt-fE-ib-8" edge="1">
          <mxGeometry relative="1" as="geometry" />
        </mxCell>
        <mxCell id="G-lFMrFsebPdyt-fE-ib-5" value="Calculate the amount of routes based on chauffeurs and vehicles" style="whiteSpace=wrap;html=1;rounded=1;" parent="WIyWlLk6GJQsqaUBKTNV-1" vertex="1">
          <mxGeometry x="85" y="202" width="160" height="60" as="geometry" />
        </mxCell>
        <mxCell id="G-lFMrFsebPdyt-fE-ib-37" value="" style="edgeStyle=orthogonalEdgeStyle;rounded=0;orthogonalLoop=1;jettySize=auto;html=1;" parent="WIyWlLk6GJQsqaUBKTNV-1" source="G-lFMrFsebPdyt-fE-ib-8" target="G-lFMrFsebPdyt-fE-ib-36" edge="1">
          <mxGeometry relative="1" as="geometry" />
        </mxCell>
        <mxCell id="G-lFMrFsebPdyt-fE-ib-8" value="Optimize all routes by using a generic VRPDO algorithm" style="whiteSpace=wrap;html=1;rounded=1;" parent="WIyWlLk6GJQsqaUBKTNV-1" vertex="1">
          <mxGeometry x="85" y="342" width="160" height="60" as="geometry" />
        </mxCell>
        <mxCell id="G-lFMrFsebPdyt-fE-ib-82" value="" style="edgeStyle=orthogonalEdgeStyle;rounded=0;orthogonalLoop=1;jettySize=auto;html=1;" parent="WIyWlLk6GJQsqaUBKTNV-1" source="G-lFMrFsebPdyt-fE-ib-11" target="G-lFMrFsebPdyt-fE-ib-81" edge="1">
          <mxGeometry relative="1" as="geometry" />
        </mxCell>
        <mxCell id="G-lFMrFsebPdyt-fE-ib-11" value="Calculate the amount of time the delivery will take" style="whiteSpace=wrap;html=1;rounded=1;" parent="WIyWlLk6GJQsqaUBKTNV-1" vertex="1">
          <mxGeometry x="85" y="627" width="160" height="60" as="geometry" />
        </mxCell>
        <mxCell id="G-lFMrFsebPdyt-fE-ib-16" value="" style="edgeStyle=orthogonalEdgeStyle;rounded=0;orthogonalLoop=1;jettySize=auto;html=1;" parent="WIyWlLk6GJQsqaUBKTNV-1" source="G-lFMrFsebPdyt-fE-ib-13" target="G-lFMrFsebPdyt-fE-ib-15" edge="1">
          <mxGeometry relative="1" as="geometry" />
        </mxCell>
        <mxCell id="G-lFMrFsebPdyt-fE-ib-86" style="edgeStyle=orthogonalEdgeStyle;rounded=0;orthogonalLoop=1;jettySize=auto;html=1;" parent="WIyWlLk6GJQsqaUBKTNV-1" source="G-lFMrFsebPdyt-fE-ib-13" target="G-lFMrFsebPdyt-fE-ib-19" edge="1">
          <mxGeometry relative="1" as="geometry" />
        </mxCell>
        <mxCell id="G-lFMrFsebPdyt-fE-ib-13" value="If the delivery is delayed" style="rhombus;whiteSpace=wrap;html=1;rounded=1;" parent="WIyWlLk6GJQsqaUBKTNV-1" vertex="1">
          <mxGeometry x="-624" y="1637" width="190" height="80" as="geometry" />
        </mxCell>
        <mxCell id="G-lFMrFsebPdyt-fE-ib-33" value="" style="edgeStyle=orthogonalEdgeStyle;rounded=0;orthogonalLoop=1;jettySize=auto;html=1;" parent="WIyWlLk6GJQsqaUBKTNV-1" source="G-lFMrFsebPdyt-fE-ib-15" target="G-lFMrFsebPdyt-fE-ib-32" edge="1">
          <mxGeometry relative="1" as="geometry" />
        </mxCell>
        <mxCell id="G-lFMrFsebPdyt-fE-ib-15" value="True" style="whiteSpace=wrap;html=1;rounded=1;" parent="WIyWlLk6GJQsqaUBKTNV-1" vertex="1">
          <mxGeometry x="-419" y="1738" width="120" height="60" as="geometry" />
        </mxCell>
        <mxCell id="G-lFMrFsebPdyt-fE-ib-104" value="" style="edgeStyle=orthogonalEdgeStyle;rounded=0;orthogonalLoop=1;jettySize=auto;html=1;" parent="WIyWlLk6GJQsqaUBKTNV-1" source="G-lFMrFsebPdyt-fE-ib-17" target="G-lFMrFsebPdyt-fE-ib-103" edge="1">
          <mxGeometry relative="1" as="geometry" />
        </mxCell>
        <mxCell id="G-lFMrFsebPdyt-fE-ib-17" value="Deliver the packages" style="whiteSpace=wrap;html=1;rounded=1;" parent="WIyWlLk6GJQsqaUBKTNV-1" vertex="1">
          <mxGeometry x="273" y="1691" width="120" height="60" as="geometry" />
        </mxCell>
        <mxCell id="G-lFMrFsebPdyt-fE-ib-97" style="edgeStyle=orthogonalEdgeStyle;rounded=0;orthogonalLoop=1;jettySize=auto;html=1;" parent="WIyWlLk6GJQsqaUBKTNV-1" source="G-lFMrFsebPdyt-fE-ib-19" target="G-lFMrFsebPdyt-fE-ib-60" edge="1">
          <mxGeometry relative="1" as="geometry">
            <Array as="points">
              <mxPoint x="-699" y="1967" />
              <mxPoint x="-169" y="1967" />
            </Array>
          </mxGeometry>
        </mxCell>
        <mxCell id="G-lFMrFsebPdyt-fE-ib-19" value="False" style="whiteSpace=wrap;html=1;rounded=1;" parent="WIyWlLk6GJQsqaUBKTNV-1" vertex="1">
          <mxGeometry x="-759" y="1738" width="120" height="60" as="geometry" />
        </mxCell>
        <mxCell id="G-lFMrFsebPdyt-fE-ib-25" value="" style="edgeStyle=orthogonalEdgeStyle;rounded=0;orthogonalLoop=1;jettySize=auto;html=1;" parent="WIyWlLk6GJQsqaUBKTNV-1" source="G-lFMrFsebPdyt-fE-ib-22" target="G-lFMrFsebPdyt-fE-ib-24" edge="1">
          <mxGeometry relative="1" as="geometry" />
        </mxCell>
        <mxCell id="G-lFMrFsebPdyt-fE-ib-22" value="Notify costumers of the expected delivery time" style="whiteSpace=wrap;html=1;rounded=1;" parent="WIyWlLk6GJQsqaUBKTNV-1" vertex="1">
          <mxGeometry x="85" y="967" width="160" height="60" as="geometry" />
        </mxCell>
        <mxCell id="G-lFMrFsebPdyt-fE-ib-53" style="edgeStyle=orthogonalEdgeStyle;rounded=0;orthogonalLoop=1;jettySize=auto;html=1;" parent="WIyWlLk6GJQsqaUBKTNV-1" source="G-lFMrFsebPdyt-fE-ib-24" target="G-lFMrFsebPdyt-fE-ib-50" edge="1">
          <mxGeometry relative="1" as="geometry" />
        </mxCell>
        <mxCell id="G-lFMrFsebPdyt-fE-ib-24" value="Go to next delivery point" style="whiteSpace=wrap;html=1;rounded=1;" parent="WIyWlLk6GJQsqaUBKTNV-1" vertex="1">
          <mxGeometry x="85" y="1107" width="160" height="60" as="geometry" />
        </mxCell>
        <mxCell id="G-lFMrFsebPdyt-fE-ib-99" style="edgeStyle=orthogonalEdgeStyle;rounded=0;orthogonalLoop=1;jettySize=auto;html=1;" parent="WIyWlLk6GJQsqaUBKTNV-1" source="G-lFMrFsebPdyt-fE-ib-32" edge="1">
          <mxGeometry relative="1" as="geometry">
            <mxPoint x="-169" y="1908" as="targetPoint" />
          </mxGeometry>
        </mxCell>
        <mxCell id="G-lFMrFsebPdyt-fE-ib-32" value="Update delivery time for the costumers" style="whiteSpace=wrap;html=1;rounded=1;" parent="WIyWlLk6GJQsqaUBKTNV-1" vertex="1">
          <mxGeometry x="-419" y="1878" width="120" height="60" as="geometry" />
        </mxCell>
        <mxCell id="G-lFMrFsebPdyt-fE-ib-42" value="" style="edgeStyle=orthogonalEdgeStyle;rounded=0;orthogonalLoop=1;jettySize=auto;html=1;" parent="WIyWlLk6GJQsqaUBKTNV-1" source="G-lFMrFsebPdyt-fE-ib-34" target="G-lFMrFsebPdyt-fE-ib-41" edge="1">
          <mxGeometry relative="1" as="geometry" />
        </mxCell>
        <mxCell id="G-lFMrFsebPdyt-fE-ib-46" value="" style="edgeStyle=orthogonalEdgeStyle;rounded=0;orthogonalLoop=1;jettySize=auto;html=1;" parent="WIyWlLk6GJQsqaUBKTNV-1" source="G-lFMrFsebPdyt-fE-ib-34" target="G-lFMrFsebPdyt-fE-ib-45" edge="1">
          <mxGeometry relative="1" as="geometry" />
        </mxCell>
        <mxCell id="G-lFMrFsebPdyt-fE-ib-34" value="If delivery point is reached" style="rhombus;whiteSpace=wrap;html=1;rounded=1;" parent="WIyWlLk6GJQsqaUBKTNV-1" vertex="1">
          <mxGeometry x="67" y="1477" width="190" height="80" as="geometry" />
        </mxCell>
        <mxCell id="G-lFMrFsebPdyt-fE-ib-38" style="edgeStyle=orthogonalEdgeStyle;rounded=0;orthogonalLoop=1;jettySize=auto;html=1;entryX=0.5;entryY=0;entryDx=0;entryDy=0;" parent="WIyWlLk6GJQsqaUBKTNV-1" source="G-lFMrFsebPdyt-fE-ib-36" target="G-lFMrFsebPdyt-fE-ib-11" edge="1">
          <mxGeometry relative="1" as="geometry" />
        </mxCell>
        <mxCell id="G-lFMrFsebPdyt-fE-ib-36" value="Create three control points between every delivery point" style="whiteSpace=wrap;html=1;rounded=1;" parent="WIyWlLk6GJQsqaUBKTNV-1" vertex="1">
          <mxGeometry x="85" y="482" width="160" height="60" as="geometry" />
        </mxCell>
        <mxCell id="G-lFMrFsebPdyt-fE-ib-94" style="edgeStyle=orthogonalEdgeStyle;rounded=0;orthogonalLoop=1;jettySize=auto;html=1;entryX=1;entryY=0.5;entryDx=0;entryDy=0;" parent="WIyWlLk6GJQsqaUBKTNV-1" source="G-lFMrFsebPdyt-fE-ib-41" target="G-lFMrFsebPdyt-fE-ib-60" edge="1">
          <mxGeometry relative="1" as="geometry" />
        </mxCell>
        <mxCell id="G-lFMrFsebPdyt-fE-ib-41" value="False" style="whiteSpace=wrap;html=1;rounded=1;" parent="WIyWlLk6GJQsqaUBKTNV-1" vertex="1">
          <mxGeometry x="-67" y="1587" width="120" height="60" as="geometry" />
        </mxCell>
        <mxCell id="G-lFMrFsebPdyt-fE-ib-59" style="edgeStyle=orthogonalEdgeStyle;rounded=0;orthogonalLoop=1;jettySize=auto;html=1;" parent="WIyWlLk6GJQsqaUBKTNV-1" source="G-lFMrFsebPdyt-fE-ib-45" target="G-lFMrFsebPdyt-fE-ib-17" edge="1">
          <mxGeometry relative="1" as="geometry" />
        </mxCell>
        <mxCell id="G-lFMrFsebPdyt-fE-ib-45" value="True" style="whiteSpace=wrap;html=1;rounded=1;" parent="WIyWlLk6GJQsqaUBKTNV-1" vertex="1">
          <mxGeometry x="273" y="1587" width="120" height="60" as="geometry" />
        </mxCell>
        <mxCell id="G-lFMrFsebPdyt-fE-ib-48" value="" style="edgeStyle=orthogonalEdgeStyle;rounded=0;orthogonalLoop=1;jettySize=auto;html=1;" parent="WIyWlLk6GJQsqaUBKTNV-1" source="G-lFMrFsebPdyt-fE-ib-50" target="G-lFMrFsebPdyt-fE-ib-51" edge="1">
          <mxGeometry relative="1" as="geometry" />
        </mxCell>
        <mxCell id="G-lFMrFsebPdyt-fE-ib-49" value="" style="edgeStyle=orthogonalEdgeStyle;rounded=0;orthogonalLoop=1;jettySize=auto;html=1;" parent="WIyWlLk6GJQsqaUBKTNV-1" source="G-lFMrFsebPdyt-fE-ib-50" target="G-lFMrFsebPdyt-fE-ib-52" edge="1">
          <mxGeometry relative="1" as="geometry" />
        </mxCell>
        <mxCell id="G-lFMrFsebPdyt-fE-ib-50" value="If control point reached" style="rhombus;whiteSpace=wrap;html=1;rounded=1;" parent="WIyWlLk6GJQsqaUBKTNV-1" vertex="1">
          <mxGeometry x="70" y="1257" width="190" height="80" as="geometry" />
        </mxCell>
        <mxCell id="G-lFMrFsebPdyt-fE-ib-92" style="edgeStyle=orthogonalEdgeStyle;rounded=0;orthogonalLoop=1;jettySize=auto;html=1;" parent="WIyWlLk6GJQsqaUBKTNV-1" source="G-lFMrFsebPdyt-fE-ib-51" target="G-lFMrFsebPdyt-fE-ib-34" edge="1">
          <mxGeometry relative="1" as="geometry" />
        </mxCell>
        <mxCell id="G-lFMrFsebPdyt-fE-ib-51" value="False" style="whiteSpace=wrap;html=1;rounded=1;" parent="WIyWlLk6GJQsqaUBKTNV-1" vertex="1">
          <mxGeometry x="275" y="1358" width="120" height="60" as="geometry" />
        </mxCell>
        <mxCell id="G-lFMrFsebPdyt-fE-ib-93" style="edgeStyle=orthogonalEdgeStyle;rounded=0;orthogonalLoop=1;jettySize=auto;html=1;" parent="WIyWlLk6GJQsqaUBKTNV-1" source="G-lFMrFsebPdyt-fE-ib-52" target="G-lFMrFsebPdyt-fE-ib-13" edge="1">
          <mxGeometry relative="1" as="geometry" />
        </mxCell>
        <mxCell id="G-lFMrFsebPdyt-fE-ib-52" value="True" style="whiteSpace=wrap;html=1;rounded=1;" parent="WIyWlLk6GJQsqaUBKTNV-1" vertex="1">
          <mxGeometry x="-65" y="1358" width="120" height="60" as="geometry" />
        </mxCell>
        <mxCell id="G-lFMrFsebPdyt-fE-ib-100" style="edgeStyle=orthogonalEdgeStyle;rounded=0;orthogonalLoop=1;jettySize=auto;html=1;" parent="WIyWlLk6GJQsqaUBKTNV-1" source="G-lFMrFsebPdyt-fE-ib-60" edge="1">
          <mxGeometry relative="1" as="geometry">
            <mxPoint x="161" y="1227" as="targetPoint" />
            <Array as="points">
              <mxPoint x="-169" y="1397" />
              <mxPoint x="-159" y="1397" />
              <mxPoint x="-159" y="1377" />
              <mxPoint x="-169" y="1377" />
              <mxPoint x="-169" y="1227" />
            </Array>
          </mxGeometry>
        </mxCell>
        <mxCell id="G-lFMrFsebPdyt-fE-ib-60" value="Keep driving" style="whiteSpace=wrap;html=1;rounded=1;" parent="WIyWlLk6GJQsqaUBKTNV-1" vertex="1">
          <mxGeometry x="-229" y="1587" width="120" height="60" as="geometry" />
        </mxCell>
        <mxCell id="G-lFMrFsebPdyt-fE-ib-71" value="" style="edgeStyle=orthogonalEdgeStyle;rounded=0;orthogonalLoop=1;jettySize=auto;html=1;" parent="WIyWlLk6GJQsqaUBKTNV-1" source="G-lFMrFsebPdyt-fE-ib-66" target="G-lFMrFsebPdyt-fE-ib-70" edge="1">
          <mxGeometry relative="1" as="geometry" />
        </mxCell>
        <mxCell id="G-lFMrFsebPdyt-fE-ib-73" value="" style="edgeStyle=orthogonalEdgeStyle;rounded=0;orthogonalLoop=1;jettySize=auto;html=1;" parent="WIyWlLk6GJQsqaUBKTNV-1" source="G-lFMrFsebPdyt-fE-ib-66" target="G-lFMrFsebPdyt-fE-ib-72" edge="1">
          <mxGeometry relative="1" as="geometry" />
        </mxCell>
        <mxCell id="G-lFMrFsebPdyt-fE-ib-66" value="If last delivery point is reached" style="rhombus;whiteSpace=wrap;html=1;" parent="WIyWlLk6GJQsqaUBKTNV-1" vertex="1">
          <mxGeometry x="69" y="1897" width="190" height="80" as="geometry" />
        </mxCell>
        <mxCell id="G-lFMrFsebPdyt-fE-ib-77" style="edgeStyle=orthogonalEdgeStyle;rounded=0;orthogonalLoop=1;jettySize=auto;html=1;" parent="WIyWlLk6GJQsqaUBKTNV-1" source="G-lFMrFsebPdyt-fE-ib-70" target="G-lFMrFsebPdyt-fE-ib-78" edge="1">
          <mxGeometry relative="1" as="geometry">
            <mxPoint x="162" y="2187" as="targetPoint" />
            <Array as="points">
              <mxPoint x="162" y="2035" />
            </Array>
          </mxGeometry>
        </mxCell>
        <mxCell id="G-lFMrFsebPdyt-fE-ib-70" value="True" style="rounded=1;whiteSpace=wrap;html=1;" parent="WIyWlLk6GJQsqaUBKTNV-1" vertex="1">
          <mxGeometry x="275" y="2005" width="120" height="60" as="geometry" />
        </mxCell>
        <mxCell id="G-lFMrFsebPdyt-fE-ib-101" style="edgeStyle=orthogonalEdgeStyle;rounded=0;orthogonalLoop=1;jettySize=auto;html=1;entryX=0.5;entryY=1;entryDx=0;entryDy=0;" parent="WIyWlLk6GJQsqaUBKTNV-1" source="G-lFMrFsebPdyt-fE-ib-72" target="G-lFMrFsebPdyt-fE-ib-13" edge="1">
          <mxGeometry relative="1" as="geometry">
            <mxPoint x="-519" y="1757" as="targetPoint" />
            <Array as="points">
              <mxPoint x="-529" y="2035" />
              <mxPoint x="-529" y="1977" />
              <mxPoint x="-519" y="1977" />
              <mxPoint x="-519" y="1957" />
              <mxPoint x="-529" y="1957" />
            </Array>
          </mxGeometry>
        </mxCell>
        <mxCell id="G-lFMrFsebPdyt-fE-ib-72" value="False" style="rounded=1;whiteSpace=wrap;html=1;" parent="WIyWlLk6GJQsqaUBKTNV-1" vertex="1">
          <mxGeometry x="-65" y="2005" width="120" height="60" as="geometry" />
        </mxCell>
        <mxCell id="G-lFMrFsebPdyt-fE-ib-80" value="" style="edgeStyle=orthogonalEdgeStyle;rounded=0;orthogonalLoop=1;jettySize=auto;html=1;" parent="WIyWlLk6GJQsqaUBKTNV-1" source="G-lFMrFsebPdyt-fE-ib-78" target="G-lFMrFsebPdyt-fE-ib-79" edge="1">
          <mxGeometry relative="1" as="geometry" />
        </mxCell>
        <mxCell id="G-lFMrFsebPdyt-fE-ib-78" value="Drive to package terminal" style="rounded=1;whiteSpace=wrap;html=1;" parent="WIyWlLk6GJQsqaUBKTNV-1" vertex="1">
          <mxGeometry x="85" y="2128" width="160" height="60" as="geometry" />
        </mxCell>
        <mxCell id="G-lFMrFsebPdyt-fE-ib-79" value="EXIT PROGRAM" style="whiteSpace=wrap;html=1;rounded=1;" parent="WIyWlLk6GJQsqaUBKTNV-1" vertex="1">
          <mxGeometry x="85" y="2238" width="160" height="60" as="geometry" />
        </mxCell>
        <mxCell id="G-lFMrFsebPdyt-fE-ib-83" style="edgeStyle=orthogonalEdgeStyle;rounded=0;orthogonalLoop=1;jettySize=auto;html=1;" parent="WIyWlLk6GJQsqaUBKTNV-1" source="G-lFMrFsebPdyt-fE-ib-81" target="G-lFMrFsebPdyt-fE-ib-22" edge="1">
          <mxGeometry relative="1" as="geometry" />
        </mxCell>
        <mxCell id="G-lFMrFsebPdyt-fE-ib-81" value="Output amount of staff and vehicles needed + estimated delivery times" style="whiteSpace=wrap;html=1;rounded=1;" parent="WIyWlLk6GJQsqaUBKTNV-1" vertex="1">
          <mxGeometry x="85" y="767" width="160" height="110" as="geometry" />
        </mxCell>
        <mxCell id="G-lFMrFsebPdyt-fE-ib-105" style="edgeStyle=orthogonalEdgeStyle;rounded=0;orthogonalLoop=1;jettySize=auto;html=1;" parent="WIyWlLk6GJQsqaUBKTNV-1" source="G-lFMrFsebPdyt-fE-ib-103" target="G-lFMrFsebPdyt-fE-ib-66" edge="1">
          <mxGeometry relative="1" as="geometry" />
        </mxCell>
        <mxCell id="G-lFMrFsebPdyt-fE-ib-103" value="Notify the costumer of the delivery" style="whiteSpace=wrap;html=1;rounded=1;" parent="WIyWlLk6GJQsqaUBKTNV-1" vertex="1">
          <mxGeometry x="273" y="1787" width="120" height="60" as="geometry" />
        </mxCell>
        <mxCell id="EtiTxTJlintU9GDnUTru-4" value="" style="edgeStyle=orthogonalEdgeStyle;rounded=0;orthogonalLoop=1;jettySize=auto;html=1;" parent="WIyWlLk6GJQsqaUBKTNV-1" source="EtiTxTJlintU9GDnUTru-1" target="EtiTxTJlintU9GDnUTru-3" edge="1">
          <mxGeometry relative="1" as="geometry" />
        </mxCell>
        <mxCell id="EtiTxTJlintU9GDnUTru-1" value="Read data and calculate optimized routes" style="whiteSpace=wrap;html=1;rounded=1;" parent="WIyWlLk6GJQsqaUBKTNV-1" vertex="1">
          <mxGeometry x="-690" y="172" width="120" height="60" as="geometry" />
        </mxCell>
        <mxCell id="EtiTxTJlintU9GDnUTru-6" value="" style="edgeStyle=orthogonalEdgeStyle;rounded=0;orthogonalLoop=1;jettySize=auto;html=1;" parent="WIyWlLk6GJQsqaUBKTNV-1" source="EtiTxTJlintU9GDnUTru-3" target="EtiTxTJlintU9GDnUTru-5" edge="1">
          <mxGeometry relative="1" as="geometry" />
        </mxCell>
        <mxCell id="EtiTxTJlintU9GDnUTru-3" value="Output expected delivery time and notify costumers" style="whiteSpace=wrap;html=1;rounded=1;" parent="WIyWlLk6GJQsqaUBKTNV-1" vertex="1">
          <mxGeometry x="-690" y="312" width="120" height="60" as="geometry" />
        </mxCell>
        <mxCell id="EtiTxTJlintU9GDnUTru-17" style="edgeStyle=orthogonalEdgeStyle;rounded=0;orthogonalLoop=1;jettySize=auto;html=1;" parent="WIyWlLk6GJQsqaUBKTNV-1" source="EtiTxTJlintU9GDnUTru-5" target="EtiTxTJlintU9GDnUTru-7" edge="1">
          <mxGeometry relative="1" as="geometry" />
        </mxCell>
        <mxCell id="EtiTxTJlintU9GDnUTru-5" value="Go to delivery point" style="whiteSpace=wrap;html=1;rounded=1;" parent="WIyWlLk6GJQsqaUBKTNV-1" vertex="1">
          <mxGeometry x="-690" y="452" width="120" height="60" as="geometry" />
        </mxCell>
        <mxCell id="EtiTxTJlintU9GDnUTru-12" style="edgeStyle=orthogonalEdgeStyle;rounded=0;orthogonalLoop=1;jettySize=auto;html=1;entryX=0.5;entryY=0;entryDx=0;entryDy=0;" parent="WIyWlLk6GJQsqaUBKTNV-1" source="EtiTxTJlintU9GDnUTru-7" target="EtiTxTJlintU9GDnUTru-9" edge="1">
          <mxGeometry relative="1" as="geometry">
            <mxPoint x="-510" y="630" as="targetPoint" />
            <Array as="points">
              <mxPoint x="-510" y="587" />
            </Array>
          </mxGeometry>
        </mxCell>
        <mxCell id="EtiTxTJlintU9GDnUTru-14" value="False" style="edgeLabel;html=1;align=center;verticalAlign=middle;resizable=0;points=[];" parent="EtiTxTJlintU9GDnUTru-12" vertex="1" connectable="0">
          <mxGeometry x="0.0583" y="-1" relative="1" as="geometry">
            <mxPoint as="offset" />
          </mxGeometry>
        </mxCell>
        <mxCell id="EtiTxTJlintU9GDnUTru-15" style="edgeStyle=orthogonalEdgeStyle;rounded=0;orthogonalLoop=1;jettySize=auto;html=1;entryX=0.5;entryY=0;entryDx=0;entryDy=0;" parent="WIyWlLk6GJQsqaUBKTNV-1" source="EtiTxTJlintU9GDnUTru-7" target="EtiTxTJlintU9GDnUTru-8" edge="1">
          <mxGeometry relative="1" as="geometry">
            <Array as="points">
              <mxPoint x="-750" y="587" />
            </Array>
          </mxGeometry>
        </mxCell>
        <mxCell id="EtiTxTJlintU9GDnUTru-16" value="True" style="edgeLabel;html=1;align=center;verticalAlign=middle;resizable=0;points=[];" parent="EtiTxTJlintU9GDnUTru-15" vertex="1" connectable="0">
          <mxGeometry x="0.0117" y="2" relative="1" as="geometry">
            <mxPoint as="offset" />
          </mxGeometry>
        </mxCell>
        <mxCell id="EtiTxTJlintU9GDnUTru-7" value="If destination reached" style="rhombus;whiteSpace=wrap;html=1;" parent="WIyWlLk6GJQsqaUBKTNV-1" vertex="1">
          <mxGeometry x="-715" y="547" width="170" height="80" as="geometry" />
        </mxCell>
        <mxCell id="EtiTxTJlintU9GDnUTru-19" value="" style="edgeStyle=orthogonalEdgeStyle;rounded=0;orthogonalLoop=1;jettySize=auto;html=1;" parent="WIyWlLk6GJQsqaUBKTNV-1" source="EtiTxTJlintU9GDnUTru-8" target="EtiTxTJlintU9GDnUTru-18" edge="1">
          <mxGeometry relative="1" as="geometry" />
        </mxCell>
        <mxCell id="EtiTxTJlintU9GDnUTru-8" value="Deliver package" style="rounded=1;whiteSpace=wrap;html=1;" parent="WIyWlLk6GJQsqaUBKTNV-1" vertex="1">
          <mxGeometry x="-810" y="650" width="120" height="60" as="geometry" />
        </mxCell>
        <mxCell id="EtiTxTJlintU9GDnUTru-13" style="edgeStyle=orthogonalEdgeStyle;rounded=0;orthogonalLoop=1;jettySize=auto;html=1;entryX=1;entryY=0.5;entryDx=0;entryDy=0;" parent="WIyWlLk6GJQsqaUBKTNV-1" source="EtiTxTJlintU9GDnUTru-9" target="EtiTxTJlintU9GDnUTru-5" edge="1">
          <mxGeometry relative="1" as="geometry">
            <Array as="points">
              <mxPoint x="-420" y="680" />
              <mxPoint x="-420" y="482" />
            </Array>
          </mxGeometry>
        </mxCell>
        <mxCell id="EtiTxTJlintU9GDnUTru-9" value="Keep going" style="rounded=1;whiteSpace=wrap;html=1;" parent="WIyWlLk6GJQsqaUBKTNV-1" vertex="1">
          <mxGeometry x="-570" y="650" width="120" height="60" as="geometry" />
        </mxCell>
        <mxCell id="EtiTxTJlintU9GDnUTru-18" value="Notify costumer" style="rounded=1;whiteSpace=wrap;html=1;" parent="WIyWlLk6GJQsqaUBKTNV-1" vertex="1">
          <mxGeometry x="-690" y="780" width="120" height="60" as="geometry" />
        </mxCell>
      </root>
    </mxGraphModel>
  </diagram>
</mxfile>
